<?xml version="1.0" encoding="UTF-8"?>
<svg xmlns="http://www.w3.org/2000/svg" version="1.1" width="100" height="100" viewBox="0 0 100 100"><rect x="0" y="0" width="100" height="100" fill="#ffffff"/><g transform="scale(4)"><g transform="translate(0,0)"><path fill-rule="evenodd" d="M9 0L9 1L8 1L8 3L9 3L9 4L8 4L8 8L6 8L6 9L4 9L4 8L3 8L3 9L2 9L2 8L0 8L0 11L2 11L2 13L4 13L4 17L5 17L5 16L6 16L6 17L8 17L8 19L9 19L9 21L8 21L8 22L9 22L9 23L8 23L8 25L9 25L9 23L11 23L11 24L10 24L10 25L11 25L11 24L12 24L12 25L14 25L14 22L15 22L15 20L13 20L13 18L14 18L14 17L13 17L13 16L15 16L15 19L16 19L16 22L17 22L17 21L19 21L19 23L18 23L18 25L20 25L20 24L19 24L19 23L21 23L21 24L22 24L22 23L23 23L23 21L22 21L22 20L23 20L23 19L25 19L25 17L24 17L24 18L23 18L23 19L22 19L22 17L23 17L23 16L24 16L24 15L25 15L25 12L23 12L23 13L22 13L22 12L21 12L21 10L19 10L19 9L21 9L21 8L18 8L18 9L16 9L16 10L17 10L17 11L13 11L13 12L12 12L12 11L11 11L11 8L10 8L10 7L11 7L11 6L10 6L10 5L9 5L9 4L11 4L11 5L12 5L12 10L13 10L13 9L15 9L15 8L16 8L16 7L17 7L17 3L15 3L15 2L17 2L17 1L16 1L16 0L12 0L12 1L11 1L11 0ZM9 1L9 2L11 2L11 1ZM13 1L13 2L12 2L12 3L11 3L11 4L12 4L12 5L13 5L13 8L14 8L14 6L15 6L15 7L16 7L16 6L15 6L15 5L14 5L14 2L15 2L15 1ZM9 6L9 7L10 7L10 6ZM8 8L8 9L6 9L6 10L5 10L5 11L6 11L6 12L4 12L4 9L3 9L3 12L4 12L4 13L6 13L6 14L7 14L7 15L6 15L6 16L7 16L7 15L8 15L8 16L10 16L10 14L9 14L9 15L8 15L8 13L11 13L11 14L12 14L12 12L11 12L11 11L6 11L6 10L8 10L8 9L9 9L9 10L10 10L10 8ZM22 8L22 9L24 9L24 10L23 10L23 11L25 11L25 9L24 9L24 8ZM18 11L18 12L20 12L20 14L21 14L21 16L23 16L23 15L24 15L24 13L23 13L23 15L22 15L22 14L21 14L21 12L20 12L20 11ZM6 12L6 13L8 13L8 12ZM14 12L14 13L13 13L13 14L14 14L14 15L15 15L15 16L16 16L16 15L17 15L17 16L18 16L18 15L17 15L17 13L15 13L15 12ZM14 13L14 14L15 14L15 13ZM0 14L0 15L1 15L1 16L0 16L0 17L2 17L2 16L3 16L3 15L1 15L1 14ZM11 15L11 16L12 16L12 15ZM19 15L19 16L20 16L20 15ZM9 17L9 18L10 18L10 20L12 20L12 18L13 18L13 17L12 17L12 18L11 18L11 17ZM17 17L17 20L20 20L20 17ZM18 18L18 19L19 19L19 18ZM9 21L9 22L11 22L11 23L12 23L12 21ZM21 22L21 23L22 23L22 22ZM24 22L24 23L25 23L25 22ZM16 23L16 24L15 24L15 25L17 25L17 23ZM23 24L23 25L25 25L25 24ZM0 0L0 7L7 7L7 0ZM1 1L1 6L6 6L6 1ZM2 2L2 5L5 5L5 2ZM18 0L18 7L25 7L25 0ZM19 1L19 6L24 6L24 1ZM20 2L20 5L23 5L23 2ZM0 18L0 25L7 25L7 18ZM1 19L1 24L6 24L6 19ZM2 20L2 23L5 23L5 20Z" fill="#000000"/></g></g></svg>
